<svg xmlns="http://www.w3.org/2000/svg" viewBox="0 0 87 117">
  <path fill="black" d="M11 7c-1,0 -1,2 0,3 3,4 28,34 28,38 2,8 -8,7 -15,7 -1,1 47,44 52,49 -2,-8 -5,-19 -7,-28 -1,-4 -3,-8 -2,-11 1,-5 6,-5 13,-5 -5,-8 -25,-51 -32,-52 -11,-2 -24,-1 -37,-1zm42 29c-1,3 2,7 5,4 0,-3 -2,-8 -5,-4zm-18 -16c3,2 4,-7 10,-5 6,2 -3,8 7,18 -3,-11 2,-20 -8,-22 -2,0 -12,1 -9,9zm-28 -3c-2,-3 -7,-7 -7,-11 0,-3 2,-4 4,-5 4,-1 40,-1 45,-1 9,2 11,10 15,17 4,7 25,41 23,46 -1,5 -7,4 -13,5 3,11 6,23 9,35 1,3 6,13 -1,14 -6,1 -70,-62 -70,-65 1,-7 12,-4 19,-5 -8,-9 -16,-20 -24,-30z"/>
</svg>
