<svg xmlns="http://www.w3.org/2000/svg" viewBox="0 0 647 660">
  <path fill="black" d="M535 262l-415 0 0 269c0,27 -4,68 9,80 14,13 66,8 96,8l211 0c25,0 82,6 95,-8 11,-12 6,-57 6,-83l0 -262c0,-2 0,-4 -2,-4zm32 -129c0,0 0,-2 -1,-2 -82,-6 -160,0 -259,0l-194 0c-45,0 -82,7 -73,56 7,35 40,33 87,33l394 0c22,0 49,2 62,-3 40,-17 28,-78 -16,-84zm-357 -42l237 0c3,-37 -9,-45 -43,-49 -24,-3 -59,0 -97,0 -61,0 -99,-5 -97,49zm93 -90c39,0 81,-2 109,0 57,4 76,37 77,90 33,2 62,-4 88,0 94,11 90,160 2,171l0 203c0,57 11,154 -24,181 -22,17 -65,14 -108,14l-236 0c-41,0 -84,0 -105,-14 -24,-18 -28,-56 -28,-97l0 -287c-95,-2 -105,-144 -21,-169 33,-9 71,2 113,-2 -3,-82 51,-90 133,-90z"/>
</svg>
